<?xml version="1.0" standalone="no"?>
<!DOCTYPE svg PUBLIC "-//W3C//DTD SVG 1.1//EN"
"http://www.w3.org/Graphics/SVG/1.1/DTD/svg11.dtd">

<svg width="324" height="212" view_box="0 0 324 212"
xmlns="http://www.w3.org/2000/svg"
xmlns:link="http://www.w3.org/1999/xlink">\n\n<desc>Généré par Mocodo 2.3.7 le Tue, 05 Apr 2022 01:04:55</desc>

<rect id="frame" x="0" y="0" width="324" height="212" fill="#ffffbf" stroke="none" stroke-width="0"/>

<!-- Association AVOIR -->
<line x1="276" y1="60" x2="276" y2="161" stroke="#f46d43" stroke-width="2"/>
<text x="281.0" y="128" fill="#4575b4" font-family="Verdana" font-size="12">0,N</text>
<line x1="159" y1="161" x2="276" y2="161" stroke="#f46d43" stroke-width="2"/>
<text x="202" y="178.0" fill="#4575b4" font-family="Verdana" font-size="12">0,N</text>
<g id="association-AVOIR">
	<path d="M 289 136 a 14 14 90 0 1 14 14 V 161 h -54 V 150 a 14 14 90 0 1 14 -14" fill="#fdae61" stroke="#fdae61" stroke-width="0"/>
	<path d="M 303 161.0 v 11 a 14 14 90 0 1 -14 14 H 263 a 14 14 90 0 1 -14 -14 V 161.0 H 54" fill="#fee090" stroke="#fee090" stroke-width="0"/>
	<rect x="249" y="136" width="54" height="50" fill="none" rx="14" stroke="#f46d43" stroke-width="2"/>
	<line x1="249" y1="161" x2="303" y2="161" stroke="#f46d43" stroke-width="1"/>
	<text x="256" y="153.7" fill="#000000" font-family="Verdana" font-size="12">AVOIR</text>
</g>

<!-- Association APPARTENIR -->
<line x1="45" y1="60" x2="159" y2="60" stroke="#f46d43" stroke-width="2"/>
<text x="86" y="77.0" fill="#4575b4" font-family="Verdana" font-size="12">0,N</text>
<line x1="276" y1="60" x2="159" y2="60" stroke="#f46d43" stroke-width="2"/>
<text x="211" y="77.0" fill="#4575b4" font-family="Verdana" font-size="12">1,1</text>
<g id="association-APPARTENIR">
	<path d="M 191 35 a 14 14 90 0 1 14 14 V 60 h -92 V 49 a 14 14 90 0 1 14 -14" fill="#fdae61" stroke="#fdae61" stroke-width="0"/>
	<path d="M 205 60.0 v 11 a 14 14 90 0 1 -14 14 H 127 a 14 14 90 0 1 -14 -14 V 60.0 H 92" fill="#fee090" stroke="#fee090" stroke-width="0"/>
	<rect x="113" y="35" width="92" height="50" fill="none" rx="14" stroke="#f46d43" stroke-width="2"/>
	<line x1="113" y1="60" x2="205" y2="60" stroke="#f46d43" stroke-width="1"/>
	<text x="120" y="52.7" fill="#000000" font-family="Verdana" font-size="12">APPARTENIR</text>
</g>

<!-- Entity LISTE -->
<g id="entity-LISTE">
	<g id="frame-LISTE">
		<rect x="9" y="18" width="72" height="25" fill="#abd9e9" stroke="#abd9e9" stroke-width="0"/>
		<rect x="9" y="43.0" width="72" height="59" fill="#e0f3f8" stroke="#e0f3f8" stroke-width="0"/>
		<rect x="9" y="18" width="72" height="84" fill="none" stroke="#74add1" stroke-width="2"/>
		<line x1="9" y1="43" x2="81" y2="43" stroke="#74add1" stroke-width="1"/>
	</g>
	<text x="27" y="35.7" fill="#000000" font-family="Verdana" font-size="12">LISTE</text>
	<text x="14" y="60.8" fill="#000000" font-family="Verdana" font-size="12">code_liste</text>
	<line x1="14" y1="63" x2="76" y2="63" stroke="#000000" stroke-width="1"/>
	<text x="14" y="77.8" fill="#000000" font-family="Verdana" font-size="12">nom</text>
	<text x="14" y="94.8" fill="#000000" font-family="Verdana" font-size="12">position</text>
</g>

<!-- Entity CARTE -->
<g id="entity-CARTE">
	<g id="frame-CARTE">
		<rect x="237" y="9" width="78" height="25" fill="#abd9e9" stroke="#abd9e9" stroke-width="0"/>
		<rect x="237" y="34.0" width="78" height="77" fill="#e0f3f8" stroke="#e0f3f8" stroke-width="0"/>
		<rect x="237" y="9" width="78" height="102" fill="none" stroke="#74add1" stroke-width="2"/>
		<line x1="237" y1="34" x2="315" y2="34" stroke="#74add1" stroke-width="1"/>
	</g>
	<text x="255" y="26.7" fill="#000000" font-family="Verdana" font-size="12">CARTE</text>
	<text x="242" y="51.7" fill="#000000" font-family="Verdana" font-size="12">code_carte</text>
	<line x1="242" y1="54" x2="309" y2="54" stroke="#000000" stroke-width="1"/>
	<text x="242" y="68.8" fill="#000000" font-family="Verdana" font-size="12">description</text>
	<text x="242" y="85.8" fill="#000000" font-family="Verdana" font-size="12">position</text>
	<text x="242" y="102.8" fill="#000000" font-family="Verdana" font-size="12">couleur</text>
</g>

<!-- Entity LABEL -->
<g id="entity-LABEL">
	<g id="frame-LABEL">
		<rect x="121" y="119" width="76" height="25" fill="#abd9e9" stroke="#abd9e9" stroke-width="0"/>
		<rect x="121" y="144.0" width="76" height="59" fill="#e0f3f8" stroke="#e0f3f8" stroke-width="0"/>
		<rect x="121" y="119" width="76" height="84" fill="none" stroke="#74add1" stroke-width="2"/>
		<line x1="121" y1="144" x2="197" y2="144" stroke="#74add1" stroke-width="1"/>
	</g>
	<text x="140" y="136.7" fill="#000000" font-family="Verdana" font-size="12">LABEL</text>
	<text x="126" y="161.8" fill="#000000" font-family="Verdana" font-size="12">code_label</text>
	<line x1="126" y1="164" x2="191" y2="164" stroke="#000000" stroke-width="1"/>
	<text x="126" y="178.8" fill="#000000" font-family="Verdana" font-size="12">nom</text>
	<text x="126" y="195.8" fill="#000000" font-family="Verdana" font-size="12">couleur</text>
</g>
</svg>